<svg width="3116" height="1646" viewBox="0 0 3116 1646" fill="none" xmlns="http://www.w3.org/2000/svg">
<path d="M1866.87 685.832L1603.78 445.791" stroke="url(#paint0_linear)" stroke-width="40" stroke-linecap="round" stroke-linejoin="round"/>
<path d="M1863.86 411.5C1856.95 367.372 1836.71 325.869 1805.4 291.647C1774.09 257.424 1732.96 231.832 1686.61 217.737C1640.26 203.642 1590.52 201.601 1542.98 211.843C1495.43 222.086 1451.94 244.207 1417.4 275.728C1382.85 307.248 1358.61 346.923 1347.38 390.308C1336.15 433.694 1338.39 479.073 1353.84 521.363C1369.29 563.653 1397.34 601.182 1434.85 629.748C1472.35 658.313 1517.84 676.781 1566.2 683.09" stroke="url(#paint1_linear)" stroke-width="40" stroke-linecap="round" stroke-linejoin="round"/>
<path d="M2167.53 685.832L2430.62 445.791" stroke="url(#paint2_linear)" stroke-width="40" stroke-linecap="round" stroke-linejoin="round"/>
<path d="M2468.2 683.09C2516.57 676.781 2562.05 658.313 2599.56 629.748C2637.07 601.182 2665.12 563.653 2680.57 521.363C2696.01 479.073 2698.25 433.694 2687.03 390.308C2675.8 346.923 2651.56 307.248 2617.01 275.728C2582.46 244.207 2538.98 222.086 2491.43 211.843C2443.88 201.601 2394.14 203.642 2347.79 217.737C2301.45 231.832 2260.31 257.424 2229.01 291.647C2197.7 325.869 2177.45 367.372 2170.54 411.5" stroke="url(#paint3_linear)" stroke-width="40" stroke-linecap="round" stroke-linejoin="round"/>
<path d="M2167.53 960.166L2430.62 1200.21" stroke="url(#paint4_linear)" stroke-width="40" stroke-linecap="round" stroke-linejoin="round"/>
<path d="M2170.54 1234.5C2177.45 1278.63 2197.7 1320.13 2229.01 1354.35C2260.31 1388.57 2301.45 1414.17 2347.79 1428.26C2394.14 1442.36 2443.88 1444.4 2491.43 1434.16C2538.98 1423.92 2582.46 1401.79 2617.01 1370.27C2651.56 1338.75 2675.8 1299.08 2687.03 1255.69C2698.25 1212.31 2696.01 1166.93 2680.57 1124.64C2665.12 1082.35 2637.07 1044.82 2599.56 1016.25C2562.05 987.69 2516.57 969.218 2468.2 962.91" stroke="url(#paint5_linear)" stroke-width="40" stroke-linecap="round" stroke-linejoin="round"/>
<path d="M1866.87 960.166L1603.78 1200.21" stroke="url(#paint6_linear)" stroke-width="40" stroke-linecap="round" stroke-linejoin="round"/>
<path d="M1566.2 962.91C1517.84 969.218 1472.35 987.69 1434.85 1016.25C1397.34 1044.82 1369.29 1082.35 1353.84 1124.64C1338.39 1166.93 1336.15 1212.31 1347.38 1255.69C1358.61 1299.08 1382.85 1338.75 1417.4 1370.27C1451.94 1401.79 1495.43 1423.92 1542.98 1434.16C1590.52 1444.4 1640.26 1442.36 1686.61 1428.26C1732.96 1414.17 1774.09 1388.57 1805.4 1354.35C1836.71 1320.13 1856.95 1278.63 1863.86 1234.5" stroke="url(#paint7_linear)" stroke-width="40" stroke-linecap="round" stroke-linejoin="round"/>
<path d="M1866.87 685.834H2167.54V960.165H1866.87V685.834Z" stroke="url(#paint8_linear)" stroke-width="40" stroke-linecap="round" stroke-linejoin="round"/>
<path d="M47.2321 957.673V584.36H321.178V654.929H139.334V733.039H301.104V803.607H139.334V957.673H47.2321ZM468.315 957.673H380.346V674.321H468.315V957.673ZM476.581 592.44C476.581 607.165 471.267 618.836 460.64 627.455C450.406 635.715 438.205 639.845 424.035 639.845C409.866 639.845 397.467 635.715 386.84 627.455C376.606 618.836 371.49 607.165 371.49 592.44C371.49 577.716 376.606 566.224 386.84 557.964C397.467 549.345 409.866 545.036 424.035 545.036C438.205 545.036 450.406 549.345 460.64 557.964C471.267 566.224 476.581 577.716 476.581 592.44ZM738.167 745.429C730.295 743.633 721.046 741.837 710.419 740.042C699.791 737.887 688.377 736.81 676.175 736.81C670.665 736.81 663.974 737.348 656.102 738.426C648.623 739.144 642.916 740.042 638.98 741.119V957.673H551.011V689.405C566.755 684.377 585.254 679.708 606.508 675.399C628.156 670.73 652.166 668.396 678.537 668.396C683.26 668.396 688.967 668.755 695.659 669.473C702.35 669.832 709.041 670.551 715.732 671.628C722.423 672.346 729.115 673.424 735.806 674.86C742.497 675.938 748.204 677.374 752.927 679.17L738.167 745.429ZM779.558 818.152C779.558 793.013 783.691 771.106 791.956 752.432C800.615 733.398 811.833 717.596 825.609 705.027C839.385 692.457 855.129 682.941 872.841 676.476C890.947 670.012 909.446 666.78 928.339 666.78C972.422 666.78 1007.26 679.17 1032.84 703.949C1058.42 728.37 1071.22 764.462 1071.22 812.226C1071.22 816.895 1071.02 822.102 1070.62 827.848C1070.23 833.235 1069.84 838.084 1069.44 842.393H869.889C871.857 858.913 880.319 872.021 895.276 881.717C910.233 891.414 930.307 896.262 955.497 896.262C971.635 896.262 987.378 895.005 1002.73 892.491C1018.47 889.618 1031.26 886.207 1041.1 882.256L1052.91 947.438C1048.19 949.593 1041.89 951.747 1034.02 953.902C1026.15 956.057 1017.29 957.853 1007.45 959.289C998.006 961.085 987.772 962.521 976.751 963.599C965.731 964.676 954.71 965.215 943.689 965.215C915.743 965.215 891.34 961.444 870.479 953.902C850.012 946.36 832.891 936.125 819.115 923.197C805.732 909.909 795.695 894.287 789.004 876.331C782.707 858.374 779.558 838.981 779.558 818.152ZM986.198 787.447C985.804 780.623 984.427 773.979 982.065 767.515C980.097 761.051 976.751 755.305 972.028 750.277C967.699 745.249 961.991 741.119 954.907 737.887C948.215 734.655 939.753 733.039 929.519 733.039C919.679 733.039 911.217 734.655 904.132 737.887C897.047 740.76 891.143 744.71 886.42 749.738C881.697 754.766 877.958 760.692 875.203 767.515C872.841 773.979 871.07 780.623 869.889 787.447H986.198ZM1237.11 889.259C1241.44 889.618 1246.36 889.977 1251.87 890.337C1257.78 890.337 1264.66 890.337 1272.54 890.337C1318.59 890.337 1352.63 879.742 1374.67 858.554C1397.11 837.365 1408.33 808.096 1408.33 770.747C1408.33 731.602 1397.7 701.974 1376.45 681.863C1355.19 661.752 1321.54 651.696 1275.49 651.696C1269.19 651.696 1262.7 651.876 1256 652.235C1249.31 652.235 1243.02 652.594 1237.11 653.313V889.259ZM1503.38 770.747C1503.38 803.069 1497.87 831.26 1486.85 855.322C1475.83 879.383 1460.09 899.315 1439.62 915.116C1419.54 930.918 1394.94 942.769 1365.82 950.67C1336.69 958.571 1304.02 962.521 1267.81 962.521C1251.28 962.521 1231.99 961.803 1209.95 960.366C1187.91 959.289 1166.26 956.775 1145.01 952.825V589.208C1166.26 585.617 1188.3 583.283 1211.13 582.205C1234.36 580.769 1254.23 580.051 1270.76 580.051C1305.79 580.051 1337.48 583.642 1365.82 590.824C1394.55 598.007 1419.15 609.319 1439.62 624.762C1460.09 640.204 1475.83 659.956 1486.85 684.018C1497.87 708.079 1503.38 736.989 1503.38 770.747ZM1761.56 745.429C1753.69 743.633 1744.44 741.837 1733.81 740.042C1723.19 737.887 1711.77 736.81 1699.57 736.81C1694.06 736.81 1687.37 737.348 1679.5 738.426C1672.02 739.144 1666.31 740.042 1662.38 741.119V957.673H1574.41V689.405C1590.15 684.377 1608.65 679.708 1629.9 675.399C1651.55 670.73 1675.56 668.396 1701.93 668.396C1706.66 668.396 1712.36 668.755 1719.05 669.473C1725.75 669.832 1732.44 670.551 1739.13 671.628C1745.82 672.346 1752.51 673.424 1759.2 674.86C1765.89 675.938 1771.6 677.374 1776.32 679.17L1761.56 745.429ZM2248.98 684.018C2263.94 680.068 2283.23 676.476 2306.84 673.244C2330.46 669.653 2355.26 667.857 2381.23 667.857C2407.61 667.857 2429.45 671.089 2446.77 677.554C2464.48 683.659 2478.45 692.457 2488.69 703.949C2498.92 715.442 2506.2 729.088 2510.53 744.89C2514.86 760.692 2517.03 778.289 2517.03 797.682V957.673H2429.06V807.378C2429.06 781.521 2425.32 763.205 2417.84 752.432C2410.36 741.658 2396.39 736.271 2375.92 736.271C2369.62 736.271 2362.93 736.63 2355.85 737.348C2348.76 737.707 2342.46 738.246 2336.95 738.964V957.673H2248.98V684.018ZM2581.89 818.152C2581.89 793.013 2586.03 771.106 2594.29 752.432C2602.95 733.398 2614.17 717.596 2627.95 705.027C2641.72 692.457 2657.47 682.941 2675.18 676.476C2693.28 670.012 2711.78 666.78 2730.68 666.78C2774.76 666.78 2809.59 679.17 2835.18 703.949C2860.76 728.37 2873.55 764.462 2873.55 812.226C2873.55 816.895 2873.36 822.102 2872.96 827.848C2872.57 833.235 2872.17 838.084 2871.78 842.393H2672.23C2674.19 858.913 2682.66 872.021 2697.61 881.717C2712.57 891.414 2732.64 896.262 2757.83 896.262C2773.97 896.262 2789.72 895.005 2805.07 892.491C2820.81 889.618 2833.6 886.207 2843.44 882.256L2855.25 947.438C2850.53 949.593 2844.23 951.747 2836.36 953.902C2828.49 956.057 2819.63 957.853 2809.79 959.289C2800.34 961.085 2790.11 962.521 2779.09 963.599C2768.07 964.676 2757.05 965.215 2746.03 965.215C2718.08 965.215 2693.68 961.444 2672.82 953.902C2652.35 946.36 2635.23 936.125 2621.45 923.197C2608.07 909.909 2598.03 894.287 2591.34 876.331C2585.04 858.374 2581.89 838.981 2581.89 818.152ZM2788.53 787.447C2788.14 780.623 2786.76 773.979 2784.4 767.515C2782.43 761.051 2779.09 755.305 2774.37 750.277C2770.04 745.249 2764.33 741.119 2757.24 737.887C2750.55 734.655 2742.09 733.039 2731.86 733.039C2722.02 733.039 2713.55 734.655 2706.47 737.887C2699.38 740.76 2693.48 744.71 2688.76 749.738C2684.03 754.766 2680.29 760.692 2677.54 767.515C2675.18 773.979 2673.41 780.623 2672.23 787.447H2788.53Z" fill="#415057"/>
<defs>
<linearGradient id="paint0_linear" x1="1735.33" y1="445.791" x2="1735.33" y2="685.832" gradientUnits="userSpaceOnUse">
<stop stop-color="#F9AA33"/>
<stop offset="1" stop-color="#FFC56E"/>
</linearGradient>
<linearGradient id="paint1_linear" x1="1602.1" y1="205.421" x2="1602.1" y2="683.09" gradientUnits="userSpaceOnUse">
<stop stop-color="#F9AA33"/>
<stop offset="1" stop-color="#FFC56E"/>
</linearGradient>
<linearGradient id="paint2_linear" x1="2299.08" y1="445.791" x2="2299.08" y2="685.832" gradientUnits="userSpaceOnUse">
<stop stop-color="#F9AA33"/>
<stop offset="1" stop-color="#FFC56E"/>
</linearGradient>
<linearGradient id="paint3_linear" x1="2432.3" y1="205.421" x2="2432.3" y2="683.09" gradientUnits="userSpaceOnUse">
<stop stop-color="#F9AA33"/>
<stop offset="1" stop-color="#FFC56E"/>
</linearGradient>
<linearGradient id="paint4_linear" x1="2299.08" y1="960.166" x2="2299.08" y2="1200.21" gradientUnits="userSpaceOnUse">
<stop stop-color="#F9AA33"/>
<stop offset="1" stop-color="#FFC56E"/>
</linearGradient>
<linearGradient id="paint5_linear" x1="2432.3" y1="962.91" x2="2432.3" y2="1440.58" gradientUnits="userSpaceOnUse">
<stop stop-color="#F9AA33"/>
<stop offset="1" stop-color="#FFC56E"/>
</linearGradient>
<linearGradient id="paint6_linear" x1="1735.33" y1="960.166" x2="1735.33" y2="1200.21" gradientUnits="userSpaceOnUse">
<stop stop-color="#F9AA33"/>
<stop offset="1" stop-color="#FFC56E"/>
</linearGradient>
<linearGradient id="paint7_linear" x1="1602.1" y1="962.91" x2="1602.1" y2="1440.58" gradientUnits="userSpaceOnUse">
<stop stop-color="#F9AA33"/>
<stop offset="1" stop-color="#FFC56E"/>
</linearGradient>
<linearGradient id="paint8_linear" x1="2017.2" y1="685.834" x2="2017.2" y2="960.165" gradientUnits="userSpaceOnUse">
<stop stop-color="#F9AA33"/>
<stop offset="1" stop-color="#FFC56E"/>
</linearGradient>
</defs>
</svg>
